<?xml version="1.0" encoding="UTF-8"?>
<svg xmlns="http://www.w3.org/2000/svg" xmlns:xlink="http://www.w3.org/1999/xlink" width="452.5pt" height="247pt" viewBox="0 0 452.5 247" version="1.1">
<g id="surface127">
<path style=" stroke:none;fill-rule:nonzero;fill:rgb(0%,0%,0%);fill-opacity:1;" d="M 303.375 0.148438 C 302.824219 0.199219 300.851562 0.472656 299 0.75 C 297.148438 1.023438 294.5 1.375 293.125 1.5 C 291.75 1.648438 289 2.101562 287 2.5 C 285 2.898438 281.925781 3.476562 280.125 3.75 C 276.050781 4.425781 267.125 6.550781 260.75 8.324219 C 258.074219 9.097656 254.476562 10.074219 252.75 10.5 C 247.324219 11.851562 237.648438 14.875 225.050781 19.148438 C 218.351562 21.421875 208.050781 24.898438 202.125 26.847656 C 191.523438 30.371094 186.949219 32.222656 181.851562 34.996094 L 180.101562 35.945312 L 174.726562 36.21875 C 171.777344 36.367188 167.027344 36.59375 164.125 36.742188 C 161.25 36.890625 158.148438 37.117188 157.25 37.242188 C 146.824219 38.691406 137.601562 39.292969 134.125 38.742188 C 131.574219 38.34375 125.601562 38.390625 121.523438 38.867188 C 119.796875 39.066406 116.398438 39.34375 114 39.492188 C 111.601562 39.640625 108.648438 39.867188 107.449219 40.015625 C 105.074219 40.265625 104.300781 40.164062 101.273438 39.117188 C 100.25 38.765625 99.222656 38.492188 99 38.492188 C 98.75 38.492188 98.25 38.015625 97.875 37.417969 C 95.898438 34.394531 94.300781 33.667969 91.050781 34.34375 C 90.074219 34.542969 88.949219 34.894531 88.550781 35.09375 C 87.375 35.695312 84.875 38.117188 83.476562 39.992188 L 82.226562 41.691406 L 81.453125 41.292969 C 80.828125 40.992188 80.128906 40.941406 77.902344 41.066406 C 73.503906 41.316406 70.128906 42.117188 65.925781 43.890625 C 64.800781 44.367188 63.699219 44.742188 63.476562 44.742188 C 62.476562 44.742188 59.328125 41.34375 58.777344 39.667969 C 58.527344 38.96875 58.527344 38.417969 58.726562 37.492188 C 59.078125 35.867188 58.777344 35.21875 57.152344 34.191406 C 56.101562 33.515625 55.652344 33.367188 54.476562 33.367188 C 51.625 33.367188 49.902344 35.367188 48.152344 40.742188 C 47.226562 43.542969 47.003906 44.667969 46.777344 47.316406 C 46.628906 49.066406 46.503906 51.214844 46.503906 52.066406 C 46.503906 53.640625 45.679688 56.839844 44.753906 58.917969 C 44.003906 60.59375 40.054688 63.542969 34.230469 66.816406 C 30.78125 68.765625 25.582031 76.089844 18.554688 88.867188 C 16.980469 91.742188 14.355469 96.34375 12.703125 99.09375 C 6.429688 109.570312 3.777344 114.667969 0.726562 122.117188 C -0.148438 124.242188 -0.199219 125.941406 0.527344 127.867188 C 1.175781 129.617188 2.277344 130.992188 5.953125 134.691406 C 8.527344 137.316406 9.054688 137.714844 10.402344 138.214844 C 11.828125 138.714844 11.953125 138.816406 12.078125 139.640625 C 12.253906 140.640625 14.953125 144.441406 16.527344 145.867188 C 17.628906 146.867188 17.953125 147.015625 20.878906 147.890625 C 22.605469 148.441406 23.378906 148.515625 26.402344 148.515625 C 31.128906 148.515625 35.800781 148.089844 37.902344 147.464844 C 38.851562 147.191406 41.425781 146.441406 43.628906 145.839844 C 48.628906 144.441406 52.230469 143.214844 54.703125 142.089844 C 55.753906 141.589844 57.777344 140.765625 59.203125 140.238281 C 61.953125 139.1875 64.179688 138.0625 68.753906 135.4375 C 70.328125 134.511719 73.304688 133.085938 75.378906 132.238281 C 77.429688 131.386719 81.027344 129.6875 83.378906 128.464844 C 89.203125 125.441406 90.027344 125.164062 93.054688 125.214844 C 95.003906 125.238281 95.980469 125.390625 97.804688 125.964844 C 99.078125 126.363281 101.878906 127.140625 104.003906 127.691406 C 106.902344 128.441406 108.753906 129.089844 111.378906 130.316406 C 113.304688 131.191406 116.179688 132.339844 117.753906 132.867188 C 120.828125 133.867188 123.054688 134.890625 125.253906 136.292969 C 127.203125 137.542969 129.527344 138.667969 134.378906 140.742188 C 136.730469 141.71875 140.429688 143.46875 142.628906 144.617188 C 144.828125 145.765625 148.253906 147.390625 150.253906 148.242188 C 152.253906 149.09375 155.054688 150.417969 156.503906 151.167969 C 159.054688 152.542969 164.027344 155.769531 165.230469 156.84375 C 165.878906 157.445312 167.957031 160.417969 168.628906 161.742188 C 168.878906 162.21875 169.605469 163.367188 170.277344 164.265625 C 172.953125 167.890625 176.128906 175.242188 178.253906 182.742188 C 178.777344 184.59375 179.828125 188.191406 180.628906 190.71875 C 184.105469 201.992188 184.429688 205.117188 182.753906 210.367188 C 182.304688 211.742188 181.777344 213.09375 181.605469 213.34375 C 181.40625 213.644531 181.355469 213.945312 181.503906 214.117188 C 181.855469 214.542969 180.929688 216.34375 179.652344 217.691406 C 178.453125 218.964844 177.828125 219.242188 175.050781 219.742188 C 174.175781 219.890625 172.375 220.367188 171.050781 220.765625 C 169.726562 221.164062 167.851562 221.691406 166.902344 221.914062 C 165.953125 222.113281 164.800781 222.464844 164.351562 222.640625 C 163.902344 222.839844 163.078125 222.992188 162.527344 222.992188 C 161.050781 222.992188 159.003906 223.46875 157.953125 224.066406 C 157.429688 224.339844 157.003906 224.640625 157.003906 224.742188 C 157.003906 225.492188 158.753906 226.242188 160.578125 226.242188 C 161.078125 226.242188 161.503906 226.34375 161.503906 226.492188 C 161.503906 226.617188 161.402344 226.742188 161.277344 226.742188 C 160.800781 226.742188 160.253906 227.542969 160.253906 228.21875 C 160.253906 229.792969 161.855469 230.117188 165.355469 229.242188 C 167.753906 228.640625 168.28125 228.617188 168.105469 229.117188 C 168.003906 229.316406 168.03125 229.765625 168.105469 230.09375 C 168.230469 230.617188 168.429688 230.695312 170.054688 230.84375 C 171.128906 230.917969 172.253906 230.894531 172.753906 230.742188 C 173.230469 230.59375 175.328125 230.417969 177.378906 230.367188 C 180.777344 230.265625 181.804688 230.117188 183.027344 229.617188 C 183.328125 229.515625 183.476562 229.640625 183.601562 230.09375 C 183.828125 231.042969 184.675781 230.917969 187.328125 229.570312 C 190.328125 228.019531 191.503906 226.871094 192.351562 224.546875 C 192.777344 223.445312 193.175781 222.746094 193.402344 222.746094 C 193.628906 222.746094 193.726562 222.644531 193.652344 222.519531 C 193.550781 222.394531 193.878906 222.417969 194.351562 222.542969 C 195.5 222.894531 196.226562 222.417969 197.425781 220.566406 C 199.375 217.492188 200.125 215.167969 200.75 209.992188 C 200.898438 208.691406 201.199219 207.34375 201.375 206.992188 C 201.574219 206.640625 201.949219 205.941406 202.226562 205.441406 C 203 204.066406 203.277344 201.566406 202.953125 199.015625 C 202.804688 197.839844 202.753906 195.992188 202.828125 194.914062 C 202.902344 193.8125 202.851562 192.238281 202.726562 191.339844 C 202.550781 190.140625 202.625 188.890625 202.976562 186.191406 C 203.703125 180.839844 204.101562 179.367188 205.902344 175.714844 C 207.300781 172.914062 207.601562 172.464844 207.902344 172.765625 C 208.902344 173.789062 213.050781 181.789062 214.378906 185.289062 C 216.777344 191.640625 218.527344 196.039062 219.328125 197.613281 C 220.476562 199.9375 222.679688 205.714844 223.253906 208.011719 C 224.777344 213.9375 224.929688 221.585938 223.578125 224.113281 C 223.328125 224.5625 222.554688 226.0625 221.828125 227.414062 C 219.703125 231.515625 217.753906 232.738281 212.878906 233.113281 C 210.605469 233.289062 209.777344 233.6875 208.527344 235.261719 C 206.851562 237.335938 207.351562 238.136719 210.277344 238.085938 C 211.976562 238.035156 212.253906 238.109375 212.378906 238.511719 C 212.652344 239.363281 214.253906 239.5625 219.128906 239.386719 C 224.378906 239.210938 228.480469 238.488281 230.953125 237.3125 C 231.804688 236.886719 232.503906 236.613281 232.503906 236.636719 C 232.503906 236.6875 232.027344 237.085938 231.453125 237.511719 C 230.226562 238.386719 229.777344 239.0625 229.753906 240.011719 C 229.753906 241.113281 230.378906 241.0625 232.703125 239.761719 C 233.902344 239.113281 235.453125 238.410156 236.179688 238.238281 C 236.90625 238.039062 238.230469 237.488281 239.15625 237.011719 C 240.605469 236.238281 240.957031 235.886719 241.804688 234.511719 C 242.929688 232.585938 243.15625 231.863281 243.554688 228.785156 L 243.828125 226.460938 L 244.851562 225.785156 C 246.402344 224.734375 246.652344 224.035156 246.277344 221.609375 C 246.101562 220.507812 245.851562 218.535156 245.753906 217.234375 C 245.402344 213.183594 245.003906 210.160156 244.605469 208.734375 C 244.40625 207.984375 244.128906 205.382812 244.003906 202.984375 C 243.855469 200.585938 243.605469 197.210938 243.378906 195.484375 C 242.605469 188.882812 242.480469 187.257812 242.453125 184.234375 C 242.429688 182.285156 242.527344 180.683594 242.726562 179.984375 C 242.902344 179.359375 243.152344 177.558594 243.25 175.984375 C 243.425781 173.359375 243.851562 169.132812 244.148438 167.035156 C 244.296875 165.984375 246.875 162.960938 248.324219 162.160156 C 248.898438 161.808594 250.398438 160.984375 251.625 160.285156 C 254.75 158.511719 258.675781 157.035156 261.375 156.609375 C 265.601562 155.960938 276.25 155.460938 280.375 155.710938 C 302.175781 157.109375 302.976562 157.136719 308.25 156.636719 C 317.148438 155.785156 321.601562 155.035156 326.625 153.488281 C 327.976562 153.0625 329.101562 152.761719 329.125 152.789062 C 329.148438 152.839844 329.648438 154.664062 330.199219 156.863281 C 330.773438 159.0625 331.625 161.988281 332.097656 163.363281 C 333.496094 167.511719 336.671875 175.613281 338.097656 178.714844 C 340.496094 183.914062 341.921875 187.515625 343.824219 193.238281 C 344.847656 196.339844 346.347656 200.613281 347.125 202.738281 C 350.601562 212.113281 351.925781 213.886719 361.5 221.636719 L 362.449219 222.410156 L 358.523438 222.558594 C 348.449219 222.957031 342.574219 223.859375 336.75 225.859375 C 330.675781 227.933594 326.101562 229.585938 323.375 230.683594 C 322 231.234375 319.875 231.984375 318.625 232.359375 C 312.300781 234.257812 310.074219 235.183594 306.75 237.359375 C 304.375 238.910156 302.25 240.910156 302.25 241.585938 C 302.25 242.234375 303.125 242.734375 304.300781 242.734375 L 305.074219 242.734375 L 304.398438 243.257812 C 303.421875 244.007812 303.625 244.707031 305 245.40625 C 306.851562 246.355469 308.925781 246.605469 315 246.605469 C 321.773438 246.605469 327 245.957031 330.5 244.679688 C 333.148438 243.703125 335.199219 243.578125 340.625 243.980469 C 345.101562 244.304688 347.925781 244.054688 354 242.804688 C 356.699219 242.230469 357.851562 242.128906 362.5 242.078125 C 367.5 242.027344 368.023438 241.976562 370 241.351562 C 371.175781 241 373.375 240.527344 374.875 240.328125 C 381.851562 239.378906 384.574219 238.527344 391.625 235.078125 C 396.125 232.851562 396.601562 232.503906 397.476562 230.851562 C 398.050781 229.75 398.175781 227.203125 397.75 225.351562 C 397.625 224.800781 397.574219 224.300781 397.648438 224.25 C 397.722656 224.175781 399.023438 224.148438 400.574219 224.175781 C 402.148438 224.226562 404.449219 224.074219 405.875 223.851562 C 407.25 223.652344 408.949219 223.476562 409.625 223.476562 C 411.625 223.476562 416.226562 221.75 422.050781 218.828125 C 430.5 214.601562 436.175781 210.851562 438.152344 208.152344 C 439.128906 206.851562 439.253906 206.527344 439.253906 205.351562 C 439.253906 202.550781 437.453125 197.300781 435.078125 193.175781 C 433.277344 190.027344 431.378906 185.949219 430.527344 183.449219 C 429.050781 178.972656 429.078125 173.074219 430.628906 167.449219 C 432.230469 161.699219 433.980469 157.75 437.253906 152.597656 C 442.253906 144.671875 443.078125 143.148438 445.230469 137.796875 C 447.378906 132.347656 448.628906 128.347656 449.503906 123.847656 C 449.980469 121.398438 450.554688 119.222656 451.003906 118.222656 C 452.378906 115.148438 452.554688 113.722656 452.402344 107.597656 C 452.175781 99.949219 452.101562 99.496094 449.226562 90.722656 C 446.578125 82.621094 445.175781 79.949219 441.375 75.722656 C 440.449219 74.699219 438.074219 71.648438 436.125 68.972656 C 434.148438 66.296875 431.226562 62.574219 429.625 60.722656 C 428.050781 58.871094 425.375 55.597656 423.699219 53.472656 C 418.273438 46.574219 416.875 45.171875 406.75 36.449219 C 396.925781 28.023438 393.351562 25.148438 389.125 22.347656 C 380.425781 16.546875 373.101562 12.972656 363.625 9.898438 C 358.75 8.296875 354.800781 7.324219 333.625 2.472656 C 328.449219 1.296875 325.300781 0.824219 320.375 0.472656 C 316.226562 0.199219 304.949219 -0.0507812 303.375 0.121094 Z M 397.523438 198.421875 C 398.023438 198.945312 399.148438 200.296875 400.074219 201.421875 L 401.722656 203.445312 L 399.722656 203.621094 C 398.621094 203.722656 397.148438 203.945312 396.472656 204.121094 L 395.246094 204.445312 L 395.246094 203.796875 C 395.246094 202.796875 396.269531 197.496094 396.472656 197.496094 C 396.574219 197.496094 397.046875 197.921875 397.523438 198.421875 Z M 397.523438 198.421875 "/>
</g>
</svg>
