<?xml version="1.0" encoding="UTF-8" standalone="no"?>
<!-- Created with Inkscape (http://www.inkscape.org/) -->

<svg
   version="1.1"
   id="svg1"
   width="163.87802"
   height="98.629898"
   viewBox="0 0 163.87803 98.629901"
   sodipodi:docname="Tapirus pinchaque.svg"
   inkscape:version="1.4.2 (f4327f4, 2025-05-13)"
   xmlns:inkscape="http://www.inkscape.org/namespaces/inkscape"
   xmlns:sodipodi="http://sodipodi.sourceforge.net/DTD/sodipodi-0.dtd"
   xmlns="http://www.w3.org/2000/svg"
   xmlns:svg="http://www.w3.org/2000/svg">
  <defs
     id="defs1" />
  <sodipodi:namedview
     id="namedview1"
     pagecolor="#ffffff"
     bordercolor="#000000"
     borderopacity="0.25"
     inkscape:showpageshadow="2"
     inkscape:pageopacity="0.0"
     inkscape:pagecheckerboard="0"
     inkscape:deskcolor="#d1d1d1"
     inkscape:zoom="5.256007"
     inkscape:cx="83.333222"
     inkscape:cy="51.084407"
     inkscape:window-width="1920"
     inkscape:window-height="974"
     inkscape:window-x="1909"
     inkscape:window-y="-11"
     inkscape:window-maximized="1"
     inkscape:current-layer="g1" />
  <g
     inkscape:groupmode="layer"
     inkscape:label="Image"
     id="g1"
     transform="translate(-14.654355,-18.910511)">
    <path
       style="fill:#000000"
       d="m 144.40287,117.2663 c -0.45028,-0.13663 -1.13768,-0.41914 -1.52756,-0.62779 -0.56914,-0.3046 -0.80087,-0.28737 -1.17568,0.0874 -1.50732,1.50732 -3.97473,-2.02822 -4.97943,-7.13499 -0.55523,-2.82217 -2.15502,-5.07246 -7.491,-10.536937 -5.43213,-5.56296 -8.05116,-7.770884 -13.28764,-11.201874 -3.20647,-2.1009 -4.27705,-2.999905 -5.39646,-4.531622 -0.76804,-1.050933 -1.50489,-1.910787 -1.63744,-1.910787 -0.50104,0 -6.84811,11.465539 -7.74375,13.988553 -0.85763,2.41594 -1.06408,5.129247 -0.61192,8.042167 0.46324,2.98429 0.93752,3.88233 2.52012,4.7718 1.46079,0.82101 3.58944,3.04986 3.58944,3.7584 0,0.38696 -0.51072,0.47908 -2.656,0.47908 -1.4608,0 -2.7928,0.12716 -2.96,0.28257 -0.43835,0.40746 -4.888923,-0.20472 -6.224001,-0.85612 -0.616,-0.30055 -1.28633,-0.90645 -1.489622,-1.34645 -0.591167,-1.27951 -1.070378,-6.95394 -1.070378,-12.674557 0,-4.50667 0.113522,-5.747934 0.767091,-8.387454 0.4219,-1.70389 0.869786,-3.67399 0.995302,-4.37799 0.327738,-1.838231 0.225518,-6.399409 -0.176909,-7.89391 L 93.503466,75.91988 92.162508,76.175374 C 88.127626,76.944185 72.588915,75.836465 66.34155,74.334696 61.876154,73.261285 56.968451,72.454483 54.887005,72.451627 c -1.571615,-0.0022 -2.670108,0.860956 -3.439582,2.702565 -0.736023,1.761553 -1.122304,6.537077 -1.193341,14.753087 -0.07302,8.445224 0.235278,10.911071 1.938225,15.502461 0.799731,2.15619 1.051639,2.50458 2.479702,3.42947 1.604593,1.03921 3.989541,3.4314 3.989541,4.00164 0,0.16984 -0.288,0.38412 -0.64,0.47617 -0.352,0.0921 -0.64,0.36004 -0.64,0.59554 0,0.2355 -0.468,0.51061 -1.04,0.61136 -1.7859,0.31457 -8.97849,-0.0227 -9.896971,-0.4641 -0.945492,-0.45437 -1.303079,-1.73424 -2.299755,-8.23126 -0.425269,-2.77219 -0.825877,-3.97171 -2.671777,-7.999987 l -2.171497,-4.738834 0.0978,-5.89395 c 0.09365,-5.643956 0.07329,-5.874698 -0.480001,-5.440001 -4.827524,3.792801 -10.106596,9.830131 -13.466531,15.400815 -2.452632,4.066387 -2.709574,4.895627 -2.441684,7.880107 l 0.210667,2.34697 -1.344509,-0.68591 c -0.903893,-0.46114 -1.467604,-0.58394 -1.720124,-0.37472 -0.649367,0.538 -3.053826,-2.01267 -3.575875,-3.79331 -0.128999,-0.44 -0.606512,-1.10461 -1.061141,-1.47691 -1.410273,-1.154887 -1.146574,-2.442937 1.151993,-5.626937 2.897046,-4.013034 4.408594,-8.271334 5.336408,-15.033631 0.282513,-2.059068 1.016434,-2.852665 4.087744,-4.420122 4.356046,-2.223128 6.965256,-4.408632 6.965256,-5.834178 0,-0.344008 -1.404,-2.623783 -3.12,-5.066168 -2.672416,-3.803651 -3.175655,-4.366959 -3.507958,-3.926682 -0.354821,0.470111 -0.454193,0.470616 -1.163423,0.0059 -1.665188,-1.09106 -3.072872,-5.72726 -3.083066,-10.15404 -0.01125,-4.886496 1.737944,-9.051987 5.840004,-13.907231 9.190164,-10.877578 25.416154,-18.151123 40.55444,-18.179141 2.597376,-0.0048 4.897679,0.185108 6.56,0.541599 3.776264,0.809834 9.128652,1.999354 13.119999,2.915801 4.592105,1.054387 10.782871,2.367721 12.800001,2.715444 5.28495,0.911046 13.44904,2.756903 15.68655,3.546647 1.43507,0.506515 4.18067,1.585942 6.10133,2.398727 1.92067,0.812784 5.72413,2.411215 8.45213,3.552067 2.728,1.140851 5.248,2.257172 5.6,2.480711 1.60617,1.020007 10.99631,4.320572 13.63951,4.794189 l 1.15951,0.207764 0.14524,-2.646904 c 0.17653,-3.217257 1.02972,-5.135957 2.62131,-5.89493 0.97652,-0.465671 1.15355,-0.462417 2.21377,0.04069 2.24108,1.063461 2.9239,3.879105 1.98066,8.167337 -0.87878,3.99515 -1.04127,3.648375 4.25085,9.071782 5.49945,5.635876 6.26727,6.674943 8.36349,11.317955 0.85674,1.897644 2.01672,4.451445 2.57772,5.675113 2.79668,6.100189 5.1138,17.894297 4.60933,23.461407 -0.21161,2.335104 -0.23937,2.395694 -1.30103,2.839284 -1.48025,0.61849 -4.03689,0.26118 -5.21315,-0.72858 -0.78489,-0.660444 -0.91012,-1.018364 -1.01984,-2.914924 -0.1405,-2.42853 -1.66674,-6.180885 -2.74977,-6.760505 -0.34172,-0.182884 -2.19098,-0.854716 -4.10946,-1.492961 -1.91848,-0.638245 -5.43367,-1.999898 -7.81153,-3.025896 -2.37787,-1.025998 -5.18587,-2.089782 -6.24,-2.363963 -2.97031,-0.77258 -6.24121,-1.954717 -7.96427,-2.878366 -1.41241,-0.757123 -1.90682,-0.840347 -4.99225,-0.840347 -1.88353,0 -3.8742,0.156737 -4.42373,0.348304 -1.23472,0.430425 -2.36036,2.175194 -2.36036,3.65861 0,1.065369 1.64682,4.695274 3.00988,6.634335 1.18502,1.685779 4.48509,7.794499 7.30314,13.518753 4.09027,8.308477 4.82751,9.338717 8.39537,11.731897 2.83251,1.89994 6.62767,5.46669 6.63304,6.23386 0.004,0.56361 -0.81079,0.75424 -3.2236,0.75424 -1.95879,0 -2.21383,0.0698 -2.21383,0.60576 0,0.33317 -0.22778,0.69317 -0.50617,0.8 -0.69797,0.26783 -4.27408,0.19377 -5.27252,-0.1092 z"
       id="path1" />
  </g>
</svg>
